<svg width="30" height="26" viewBox="0 0 30 26" fill="none" xmlns="http://www.w3.org/2000/svg">
<g clip-path="url(#clip0_1_1564)">
<path d="M25.15 9.1V11.7H26.6V14.3H25.15V16.9H3.4V9.1H25.15ZM25.875 6.5H2.675C1.47377 6.5 0.5 7.37303 0.5 8.45V17.55C0.5 18.627 1.47377 19.5 2.675 19.5H25.875C27.0762 19.5 28.05 18.627 28.05 17.55V16.9H28.4125C29.0131 16.9 29.5 16.4635 29.5 15.925V10.075C29.5 9.53652 29.0131 9.1 28.4125 9.1H28.05V8.45C28.05 7.37303 27.0762 6.5 25.875 6.5ZM15 10.4H4.85V15.6H15V10.4Z" fill="black"/>
</g>
<defs>
<clipPath id="clip0_1_1564">
<rect width="29" height="26" fill="white" transform="translate(0.5)"/>
</clipPath>
</defs>
</svg>
