<svg width="80" height="56" viewBox="0 0 80 56" fill="none" xmlns="http://www.w3.org/2000/svg">
<path fill-rule="evenodd" clip-rule="evenodd" d="M40 49.7877C35.8079 53.3835 30.56 55.5211 24.8649 55.5211C11.1324 55.5211 0 43.0923 0 27.7606C0 12.4288 11.1324 0 24.8649 0C30.56 0 36.0241 2.31615 40.2162 5.91197C34.2999 10.9867 30.2703 18.7872 30.2703 27.7606C30.2703 36.734 34.0837 44.713 40 49.7877ZM40 49.7877C45.9163 44.713 49.7297 36.734 49.7297 27.7606C49.7297 18.7872 46.1325 10.9867 40.2162 5.91197C44.4083 2.31615 49.44 0 55.1351 0C68.8676 0 80 12.4288 80 27.7606C80 43.0923 68.8676 55.5211 55.1351 55.5211C49.44 55.5211 44.1921 53.3835 40 49.7877Z" fill="#FFFDFD"/>
<path d="M24.8649 55.0211C11.4589 55.0211 0.5 42.8694 0.5 27.7606C0.5 12.6517 11.4589 0.5 24.8649 0.5C30.228 0.5 35.3967 2.60509 39.4478 5.92043C33.669 11.0905 29.7703 18.8598 29.7703 27.7606C29.7703 36.6498 33.4548 44.5929 39.232 49.7789C35.1994 53.0788 30.2327 55.0211 24.8649 55.0211ZM55.1351 55.0211C49.7673 55.0211 44.8006 53.0788 40.768 49.7789C46.5452 44.5929 50.2297 36.6498 50.2297 27.7606C50.2297 18.8765 46.7545 11.1011 40.9834 5.92007C45.0139 2.59841 49.7811 0.5 55.1351 0.5C68.5411 0.5 79.5 12.6517 79.5 27.7606C79.5 42.8694 68.5411 55.0211 55.1351 55.0211Z" stroke="black" stroke-opacity="0.3"/>
</svg>
