<svg width="26" height="26" viewBox="0 0 26 26" fill="none" xmlns="http://www.w3.org/2000/svg">
<path d="M9.01341 13.8737H7.12154C6.77312 13.8737 6.49091 14.1559 6.49091 14.5043V22.0718C6.49091 22.4202 6.77312 22.7024 7.12154 22.7024H9.01341C9.36183 22.7024 9.64403 22.4202 9.64403 22.0718V14.5043C9.64403 14.1559 9.36183 13.8737 9.01341 13.8737ZM3.96842 17.6574H2.07655C1.72813 17.6574 1.44592 17.9396 1.44592 18.2881V22.0718C1.44592 22.4202 1.72813 22.7024 2.07655 22.7024H3.96842C4.31684 22.7024 4.59904 22.4202 4.59904 22.0718V18.2881C4.59904 17.9396 4.31684 17.6574 3.96842 17.6574ZM14.0584 10.0899H12.1665C11.8181 10.0899 11.5359 10.3722 11.5359 10.7206V22.0718C11.5359 22.4202 11.8181 22.7024 12.1665 22.7024H14.0584C14.4068 22.7024 14.689 22.4202 14.689 22.0718V10.7206C14.689 10.3722 14.4068 10.0899 14.0584 10.0899ZM19.1034 6.3062H17.2115C16.8631 6.3062 16.5809 6.58841 16.5809 6.93683V22.0718C16.5809 22.4202 16.8631 22.7024 17.2115 22.7024H19.1034C19.4518 22.7024 19.734 22.4202 19.734 22.0718V6.93683C19.734 6.58841 19.4518 6.3062 19.1034 6.3062ZM24.1484 2.52246H22.2565C21.9081 2.52246 21.6259 2.80467 21.6259 3.15308V22.0718C21.6259 22.4202 21.9081 22.7024 22.2565 22.7024H24.1484C24.4968 22.7024 24.779 22.4202 24.779 22.0718V3.15308C24.779 2.80467 24.4968 2.52246 24.1484 2.52246Z" fill="black"/>
</svg>
