<svg width="26" height="27" viewBox="0 0 26 27" fill="none" xmlns="http://www.w3.org/2000/svg">
<g clip-path="url(#clip0_1_1566)">
<path d="M25.3011 9.23393C18.3804 2.32066 7.61676 2.32319 0.698795 9.23393C0.438639 9.4938 0.43356 9.93382 0.685123 10.2034L2.02262 11.6365C2.26247 11.8938 2.6484 11.8993 2.89762 11.6525C8.59762 6.01291 17.4015 6.01165 23.1027 11.6525C23.3519 11.8993 23.7379 11.8934 23.9777 11.6365L25.3152 10.2034C25.5664 9.93382 25.5613 9.4938 25.3011 9.23393ZM13 17.5499C11.6191 17.5499 10.5 18.7586 10.5 20.2499C10.5 21.7413 11.6191 22.9499 13 22.9499C14.3808 22.9499 15.5 21.7413 15.5 20.2499C15.5 18.7586 14.3808 17.5499 13 17.5499ZM20.9168 14.0235C16.4144 9.7233 9.58044 9.72794 5.08317 14.0235C4.81364 14.2808 4.80504 14.7276 5.0609 15.0001L6.40622 16.4341C6.64059 16.6838 7.01794 16.7007 7.26754 16.4678C10.5468 13.4063 15.4605 13.413 18.732 16.4678C18.9816 16.7007 19.359 16.6842 19.5933 16.4341L20.9386 15.0001C21.1949 14.7276 21.1859 14.2804 20.9168 14.0235Z" fill="black"/>
</g>
<defs>
<clipPath id="clip0_1_1566">
<rect width="25" height="27" fill="white" transform="translate(0.5)"/>
</clipPath>
</defs>
</svg>
